<svg width="431" height="529" viewBox="0 0 431 529" fill="none" xmlns="http://www.w3.org/2000/svg">
<path fill-rule="evenodd" clip-rule="evenodd" d="M56.0429 396.651C50.5819 398.835 62.4139 474.469 69.0126 512.013C54.5194 495.45 21.9316 422.991 22.7926 380.8C-10.4576 321.819 -7.77424 252.936 35.7081 196.645C36.2796 195.905 36.8583 195.173 37.4442 194.448L50.1142 265.996C52.2863 249.523 58.4771 210.876 65.8626 193.499C73.9865 174.384 84.9264 156.697 117.081 141.439C141.801 131.606 169.731 123.333 199.964 114.379C208.661 111.803 217.548 109.171 226.605 106.429V175.85L264.674 94.4193C265.021 94.3041 265.369 94.1887 265.716 94.073C292.627 85.1218 314.592 75.514 332.567 65.9607L341.731 109.055L349.722 56.162C383.48 35.4173 399.539 16.1178 408.101 5.82819L408.104 5.82483C408.94 4.8201 409.704 3.90133 410.407 3.07554C422.698 -11.3719 434.219 33.6542 428.75 80.6007C422.203 136.798 405.189 161.597 391.303 181.836L391.303 181.837C387.816 186.918 384.527 191.713 381.65 196.645C380.389 198.806 378.495 201.215 376.075 203.817H312.95L361.206 217.279C327.688 244.313 266.439 279.573 250.588 285.385C245.79 287.144 238.417 290.468 229.857 294.575C226.025 295.604 222.09 296.621 218.459 297.493C204.883 300.751 164.697 304.824 153.836 304.824C145.148 304.824 112.927 310.254 97.9023 312.969L166.465 327.093C154.1 332.373 126.709 345.641 114.748 357.059C99.7301 371.394 62.8691 393.92 56.0429 396.651ZM69.0126 512.013H292.206V528.013H69.0094V512.013H69.0126Z" fill="#06DC5B"/>
</svg>
